<?xml version="1.0" encoding="UTF-8"?>
<svg width="752pt" height="752pt" version="1.1" viewBox="0 0 752 752" xmlns="http://www.w3.org/2000/svg">
 <g>
  <path d="m312.86 328.64c0 17.438-14.133 31.57-31.57 31.57s-31.57-14.133-31.57-31.57 14.133-31.574 31.57-31.574 31.57 14.137 31.57 31.574"/>
  <path d="m469.27 233.93-9.3633 31.574h73.961v236.79h-144.11l-9.3594 31.574h185.04v-299.94z"/>
  <path d="m394.42 486.5h123.65v-45.102c-31.523-43.82-46.633-105.09-77.082-112.05z"/>
  <path d="m424.01 166.3-20.051 67.625h-217.39v299.93h128.55l-17.395 58.66 30.277 8.9648 126.29-426.22zm-74.684 252.04c-10.547-13.59-21.152-22.039-32.52-22.039-30.863 0-42.211 65.621-82.875 78.914l-0.003907 11.289h95.207l-4.6719 15.785h-106.32v-236.79h176.49z"/>
 </g>
</svg>
